# xmcd
#
# Track frame offsets:
#	182
#	23220
#	35307
#	56182
#	76077
#	95545
#	104107
#	119005
#	136630
#	158577
#	172662
#	184855
#
# Disc length: 2662 seconds
#
# Revision: 2
# Processed by: cddbd v1.5.1PL0 Copyright (c) Steve Scherf et al.
# Submitted via: audiograbber 1.83.01
#
DISCID=930a640c
DTITLE=Hana Hegerova - Sansony
DYEAR=1995
DGENRE=Chanson
TTITLE0=Stastne slunce
TTITLE1=Madony na kolotoci
TTITLE2=Blazen a dite
TTITLE3=Barova lavice
TTITLE4=Zidovska mama
TTITLE5=Noc
TTITLE6=Amfora
TTITLE7=Obraz Doriana Graye
TTITLE8=Pisen o maliri
TTITLE9=Kazani v kapli Betlemske
TTITLE10=Petr a Lucie
TTITLE11=Mon Dieu
EXTD=
EXTT0=
EXTT1=
EXTT2=
EXTT3=
EXTT4=
EXTT5=
EXTT6=
EXTT7=
EXTT8=
EXTT9=
EXTT10=
EXTT11=
PLAYORDER=
